# xmcd CD database file
#
# Track frame offsets:
#	150
#	24761
#	44700
#	72313
#	91073
#	108155
#	122390
#	148831
#	167590
#	189251
#	215956
#	235750
#
# Disc length: 3296 seconds
#
# Revision: 0
# Processed by: cddbd v1.5.2PL0 Copyright (c) Steve Scherf et al.
# Submitted via: CDex 1.79
#
DISCID=9f0cde0c
DTITLE=Fourganic - Rare Session
DYEAR=1900
DGENRE=Jazz
TTITLE0=Heavy Fever
TTITLE1=Sweet Honey Bee
TTITLE2=Jimmy's Blues
TTITLE3=Minor Creeps
TTITLE4=Faatuchine
TTITLE5=Cheese Cacke
TTITLE6=3 Floors Up
TTITLE7=Love Power
TTITLE8=Space Jet
TTITLE9=Muffle Shuffle
TTITLE10=You know why
TTITLE11=8 Counts for Rira
EXTD=
EXTT0=
EXTT1=
EXTT2=
EXTT3=
EXTT4=
EXTT5=
EXTT6=
EXTT7=
EXTT8=
EXTT9=
EXTT10=
EXTT11=
PLAYORDER=
